<svg xmlns="http://www.w3.org/2000/svg" width="24" height="24" viewBox="0 0 24 24">
  <!-- Selected state closes the inner loop into Claire's filled chat bubble. -->
  <g transform="translate(-4 -4) scale(0.5)">
    <g transform="translate(64 0) scale(-1 1)">
      <path d="M10 34c0-13 9-22 22-22s22 8 22 20-9 20-21 20c-10 0-17-6-17-14 0-7 5-12 12-12 6 0 10 4 10 9 0 6-4 10-10 10" fill="none" stroke="#10120F" stroke-width="4.5" stroke-linecap="round" stroke-linejoin="round"/>
      <path d="M28 26c6 0 10 4 10 9 0 4.7-2.7 8.3-7 9.6l-3.3 3.2.3-2.8c-7 0-12-4.7-12-10 0-5 5-9 12-9Z" fill="#10120F"/>
      <circle cx="10" cy="34" r="5" fill="#DFFF64"/>
    </g>
  </g>
</svg>
