<svg xmlns="http://www.w3.org/2000/svg" viewBox="0 0 64 64" role="img" aria-labelledby="title desc">
  <title id="title">Claire Echo C logo</title>
  <desc id="desc">A letter C surrounded by a small conversation echo.</desc>
  <path d="M21 4h22c10.5 0 17 6.5 17 17v14c0 10.5-6.5 17-17 17H33L22 60v-8h-1C10.5 52 4 45.5 4 35V21C4 10.5 10.5 4 21 4Z" fill="#B9DCFF" stroke="#10120F" stroke-width="2" stroke-linejoin="round"/>
  <path d="M39.7 20.5c-2.3-2.1-5.1-3.2-8.3-3.2-6.9 0-12 5.3-12 12.4s5.1 12.4 12 12.4c3.2 0 6-1.1 8.3-3.2" fill="none" stroke="#10120F" stroke-width="6.2" stroke-linecap="round"/>
  <path d="M46.5 35.7h4.3c3.7 0 6.2 2.4 6.2 6.1v2.1c0 3.7-2.5 6.1-6.2 6.1h-1.7l-3.5 2.8V50c-3.7 0-6.1-2.4-6.1-6.1v-2.1c0-3.7 2.4-6.1 6.1-6.1Z" fill="#FF6B77" stroke="#10120F" stroke-width="1.8" stroke-linejoin="round"/>
</svg>
